<svg width="31" height="21" viewBox="0 0 31 21" fill="none" xmlns="http://www.w3.org/2000/svg">
<path d="M1 21C0.447716 21 0 20.5523 0 20V18.5C0 17.9477 0.447715 17.5 1 17.5H30C30.5523 17.5 31 17.9477 31 18.5V20C31 20.5523 30.5523 21 30 21H1ZM1 12.25C0.447716 12.25 0 11.8023 0 11.25V9.75C0 9.19772 0.447715 8.75 1 8.75H30C30.5523 8.75 31 9.19772 31 9.75V11.25C31 11.8023 30.5523 12.25 30 12.25H1ZM1 3.5C0.447716 3.5 0 3.05228 0 2.5V1C0 0.447715 0.447715 0 1 0H30C30.5523 0 31 0.447715 31 1V2.5C31 3.05228 30.5523 3.5 30 3.5H1Z" fill="currentColor"/>
</svg>
